<?xml version="1.0" standalone="no"?>
<!DOCTYPE svg PUBLIC "-//W3C//DTD SVG 20010904//EN"
 "http://www.w3.org/TR/2001/REC-SVG-20010904/DTD/svg10.dtd">
<svg version="1.0" xmlns="http://www.w3.org/2000/svg"
 width="640.000000pt" height="426.000000pt" viewBox="0 0 640.000000 426.000000"
 preserveAspectRatio="xMidYMid meet">
 
<g transform="translate(0.000000,426.000000) scale(0.100000,-0.100000)"
fill="#000000" stroke="none">
<path d="M0 3789 l0 -472 78 8 c229 21 236 18 276 -121 9 -34 11 -55 4 -62 -6
-6 -4 -11 6 -15 11 -5 16 -1 16 13 0 27 -83 336 -200 740 -21 74 -54 189 -72
255 l-33 120 -37 3 -38 3 0 -472z"/>
<path d="M762 4235 c42 -29 45 -35 93 -250 19 -88 47 -203 61 -255 13 -52 27
-102 29 -110 2 -8 4 -15 5 -15 1 0 3 -13 5 -30 2 -16 23 -105 46 -197 36 -146
43 -166 58 -158 9 5 111 23 226 40 116 17 227 36 249 41 30 8 42 7 52 -3 18
-18 56 -203 52 -250 -2 -25 1 -38 9 -38 6 0 13 -8 15 -17 2 -10 15 16 28 57
24 70 28 76 63 87 25 9 45 9 63 3 14 -6 41 -10 59 -10 55 0 68 -29 49 -110 -9
-36 -23 -73 -31 -82 -19 -22 -4 -24 23 -3 10 8 26 15 34 15 8 0 34 8 59 17 35
14 40 18 25 24 -17 6 -17 8 6 17 53 21 57 35 63 207 5 159 11 195 29 195 5 0
6 -5 2 -11 -4 -8 5 -9 32 -5 37 6 489 64 679 87 65 8 93 16 99 27 6 10 30 40
56 67 25 28 58 67 74 88 29 39 82 78 126 92 14 4 58 34 99 67 42 33 81 56 89
53 16 -6 98 40 106 60 3 8 0 15 -7 15 -6 0 0 11 13 26 14 14 36 36 49 50 25
25 55 31 66 14 3 -5 11 -10 16 -10 6 0 7 5 3 12 -4 7 -3 8 4 4 17 -10 89 52
113 97 11 20 37 48 59 62 92 58 184 55 -1522 55 l-1563 0 37 -25z m1357 -327
c53 -16 77 -46 58 -72 -30 -41 -278 -80 -372 -58 -37 8 -34 9 52 16 50 5 118
13 150 20 54 10 58 13 55 36 -2 14 -5 27 -7 28 -19 20 -328 21 -425 1 -59 -12
-120 -37 -120 -48 0 -4 11 -14 25 -21 13 -7 22 -17 19 -22 -7 -11 -61 -10 -69
2 -3 5 -12 7 -20 4 -11 -5 -11 -12 1 -47 28 -78 84 -311 79 -325 -3 -10 -17
-12 -50 -8 -25 3 -65 9 -90 12 -25 3 -45 9 -45 15 0 5 13 21 30 35 32 30 50
88 31 107 -6 6 -11 17 -11 24 0 26 -43 73 -67 73 -13 0 -23 5 -23 11 0 5 -6 7
-12 3 -10 -6 -10 -4 0 7 17 18 15 49 -3 49 -29 0 -15 15 36 38 35 17 54 20 62
13 8 -6 18 -6 27 -1 8 5 17 7 20 5 3 -2 6 8 5 23 0 38 47 61 173 83 128 22
416 21 491 -3z"/>
<path d="M4863 4223 c-9 -21 -16 -50 -17 -64 -1 -16 -6 -25 -13 -22 -20 8 -63
-72 -63 -116 0 -22 4 -41 9 -43 5 -1 12 -21 15 -43 13 -104 19 -171 17 -185
-1 -8 15 2 36 23 21 20 42 37 45 37 3 0 18 -20 32 -44 15 -25 31 -48 36 -51 6
-3 -6 21 -26 55 l-36 62 25 26 c13 15 22 34 20 42 -3 10 -2 11 4 3 11 -16 234
127 245 157 7 19 5 21 -15 15 -21 -6 -21 -5 -2 6 11 7 23 16 26 21 3 6 10 10
15 11 5 1 9 12 9 23 0 12 4 20 10 18 10 -4 18 6 58 74 l19 32 -217 0 -216 0
-16 -37z"/>
<path d="M5796 4239 c-2 -8 -19 -61 -36 -119 -49 -163 -109 -355 -145 -465
-18 -55 -40 -127 -48 -160 -9 -33 -39 -147 -67 -253 -48 -180 -52 -201 -52
-309 0 -120 18 -243 35 -243 6 0 34 7 63 16 49 16 52 19 58 55 3 21 15 53 26
71 13 23 16 38 10 48 -18 28 -10 81 25 166 21 50 37 106 39 138 1 29 6 58 10
64 4 6 1 21 -6 32 -11 17 -11 22 2 30 10 7 11 10 2 10 -7 0 -15 -7 -19 -16 -3
-8 -11 -13 -19 -10 -7 3 -14 0 -17 -7 -2 -6 -6 -4 -10 6 -4 10 -1 17 6 18 7 0
3 4 -7 8 -31 12 -28 36 5 37 16 1 26 -3 23 -7 -3 -5 -1 -9 5 -9 5 0 12 4 15 9
8 12 -20 22 -40 14 -13 -5 -15 -2 -9 15 4 15 2 22 -7 23 -7 0 -3 4 9 9 11 5
31 6 44 3 22 -6 22 -7 3 -15 -13 -5 -9 -6 13 -2 29 5 32 3 28 -18 -4 -22 -4
-22 10 -4 8 10 12 22 10 27 -3 4 0 9 6 11 6 2 13 21 14 41 2 26 0 37 -8 34
-13 -5 -13 -11 -1 -41 5 -14 4 -17 -5 -12 -7 5 -10 2 -9 -5 2 -7 -5 -15 -16
-17 -12 -3 -16 0 -11 8 5 9 2 10 -13 6 -15 -5 -21 -1 -24 18 -4 19 -1 23 11
19 9 -2 5 3 -9 11 -14 8 -19 15 -12 16 10 0 10 5 1 21 -8 15 -8 19 0 15 6 -4
11 -3 11 3 0 5 -6 12 -12 14 -10 4 -10 6 0 6 7 1 15 -6 18 -14 4 -8 10 -15 15
-15 14 0 11 30 -3 30 -7 0 -5 5 5 11 14 8 23 7 38 -6 17 -17 19 -17 25 -1 10
26 -5 149 -19 158 -9 6 -9 8 1 8 8 0 11 11 10 31 -2 27 -5 29 -28 25 -22 -5
-22 -4 5 9 30 14 30 14 5 15 -18 1 -21 3 -9 8 9 4 15 15 13 25 -1 9 2 17 7 17
5 0 9 24 8 53 -1 68 8 163 25 262 13 72 14 110 2 74z"/>
<path d="M4133 3973 c4 -6 33 -28 66 -49 67 -44 79 -68 30 -59 -17 3 -47 12
-66 20 -20 8 -37 15 -39 15 -11 0 -1 -24 19 -43 26 -27 51 -77 38 -77 -5 0
-11 6 -14 13 -2 6 -8 0 -12 -15 -4 -16 -11 -28 -17 -28 -5 0 -6 -9 -3 -20 5
-16 2 -20 -19 -20 -18 0 -26 -5 -26 -17 0 -15 -2 -16 -10 -3 -13 20 -14 -5 -1
-29 16 -28 -2 -40 -59 -42 -31 -1 -62 -8 -72 -16 -11 -10 -18 -11 -23 -4 -8
14 -35 14 -35 0 0 -6 7 -9 15 -5 8 3 15 1 15 -4 0 -6 7 -10 15 -10 15 0 19
-15 15 -58 -1 -13 7 -30 17 -37 32 -25 -65 -18 -151 10 -92 30 -98 30 -66 4
33 -28 32 -43 -5 -49 -18 -3 -34 -14 -40 -27 -13 -30 -29 -29 -56 5 -14 17
-23 22 -26 15 -8 -23 -41 -14 -63 18 -33 45 -37 26 -5 -22 24 -38 55 -144 55
-192 0 -15 -12 -35 -58 -97 -2 -3 -8 3 -13 13 -15 25 -26 21 -26 -10 0 -14 -7
-31 -16 -38 -15 -11 -70 -135 -60 -135 3 0 -1 -7 -8 -17 -8 -9 -13 -24 -11
-35 2 -10 -2 -18 -8 -18 -7 0 -10 6 -7 13 3 7 -1 21 -9 31 -12 17 -15 16 -49
-19 l-36 -38 15 -46 c33 -105 37 -142 26 -198 -7 -30 -9 -58 -5 -61 8 -8 50
40 80 89 16 26 33 37 78 51 55 17 87 16 87 -3 0 -5 7 -9 15 -9 28 0 75 -30 75
-48 0 -13 10 -18 43 -19 59 -4 128 -23 156 -45 13 -10 29 -18 36 -18 7 0 16
-7 19 -16 4 -10 13 -13 25 -9 11 3 22 1 25 -4 4 -6 18 -6 36 -1 17 5 30 4 32
-1 6 -17 89 -18 173 -2 108 20 123 19 181 -12 47 -26 54 -27 149 -21 55 4 149
14 208 22 60 9 119 13 132 10 12 -3 38 -1 56 5 19 6 40 13 47 15 7 2 -28 25
-79 51 -53 28 -118 72 -155 106 -55 50 -66 66 -80 118 -9 33 -19 58 -21 55
-11 -11 21 -118 47 -160 28 -43 29 -61 2 -34 -8 8 -12 9 -12 1 0 -17 -140 -10
-151 8 -6 8 -23 39 -39 69 -15 30 -40 70 -54 89 -36 48 -39 94 -21 286 21 222
26 241 90 349 30 50 57 103 60 117 8 34 -12 48 -24 17 -5 -13 -20 -48 -34 -78
-133 -289 -141 -319 -139 -519 1 -85 4 -162 7 -172 4 -11 2 -19 -2 -19 -19 0
-33 101 -40 275 l-7 180 -22 -90 c-12 -49 -34 -125 -49 -169 -14 -43 -23 -87
-20 -97 4 -11 2 -19 -2 -19 -5 0 -17 -16 -26 -36 -13 -27 -22 -35 -40 -32 -15
2 -22 10 -23 26 -2 30 -14 42 -14 13 0 -20 -4 -22 -25 -17 -14 4 -34 2 -44 -4
-23 -12 -114 26 -148 62 -21 24 -88 61 -129 73 -21 5 -104 95 -104 112 0 20
114 121 153 136 27 10 163 29 237 32 30 2 55 4 55 5 0 1 13 3 29 5 15 2 30 6
33 9 6 6 21 73 28 126 3 24 9 60 14 80 17 66 30 215 28 315 -2 90 -4 100 -22
103 -11 3 -25 8 -30 13 -17 13 -99 24 -92 12z"/>
<path d="M7 3263 c-4 -3 -7 -48 -7 -100 0 -86 1 -93 20 -93 26 0 26 -20 0 -27
-13 -4 -20 -14 -20 -30 0 -21 3 -22 20 -13 14 8 26 7 42 -1 17 -9 24 -8 34 5
8 12 20 15 38 10 17 -4 26 -2 26 6 0 10 3 10 15 0 9 -8 25 -9 42 -5 16 5 47 9
71 11 47 3 74 18 66 39 -3 7 -1 16 5 20 6 3 11 0 11 -8 0 -8 9 -22 20 -32 11
-10 20 -13 20 -7 0 6 -8 16 -17 21 -10 6 -13 11 -6 11 6 0 9 8 6 19 -3 13 -12
17 -33 15 -16 -2 -32 1 -36 7 -3 6 -18 7 -33 4 -26 -5 -27 -4 -27 32 -1 68
-12 93 -49 109 -35 14 -196 20 -208 7z"/>
<path d="M3212 2997 c-23 -27 -62 -177 -62 -237 0 -86 -46 -150 -107 -150 -21
0 -33 -4 -27 -8 7 -4 17 -33 24 -64 7 -32 14 -58 14 -58 1 0 16 -4 34 -9 20
-6 30 -6 27 0 -8 12 11 12 34 -1 17 -8 19 -2 24 67 4 59 10 80 28 99 12 13 18
24 13 24 -5 0 -4 4 1 8 13 9 35 80 35 114 0 14 7 31 16 39 18 15 15 36 -15
123 -25 70 -25 70 -39 53z"/>
<path d="M1315 2865 c-93 -12 -173 -20 -177 -18 -12 6 -10 -4 14 -104 12 -51
27 -93 33 -93 19 0 570 80 583 85 7 2 56 11 110 20 129 20 154 26 148 33 -3 3
-1 11 5 19 6 7 8 13 4 13 -4 0 -2 7 5 15 26 31 -71 32 -103 1 -8 -8 -30 -14
-48 -14 -113 3 -170 -8 -139 -27 27 -16 -11 -39 -82 -48 -34 -5 -40 -2 -108
69 -40 41 -73 73 -74 73 0 -1 -77 -11 -171 -24z"/>
<path d="M620 2394 c0 -5 84 -136 176 -273 16 -24 34 -51 39 -60 6 -8 15 -20
21 -26 5 -5 23 -30 39 -55 17 -25 32 -47 35 -50 4 -3 17 -23 30 -45 13 -22 28
-44 32 -50 4 -5 18 -23 31 -40 13 -16 36 -50 50 -75 14 -25 34 -54 45 -65 10
-11 27 -35 37 -52 11 -18 23 -33 27 -33 4 0 8 -6 8 -13 0 -7 8 -22 18 -33 9
-10 36 -50 60 -89 23 -38 60 -95 82 -125 22 -30 52 -74 67 -97 15 -23 39 -44
51 -48 16 -4 22 -11 18 -20 -3 -9 1 -15 10 -15 8 0 13 3 11 8 -3 4 20 7 51 7
32 0 73 4 92 8 25 6 31 5 20 -2 -8 -6 -25 -11 -37 -11 -13 0 -23 -4 -23 -10 0
-14 28 -12 91 6 29 9 65 18 79 21 14 2 79 19 145 38 145 40 385 101 439 110
30 5 36 9 25 16 -10 7 -3 8 21 4 19 -3 51 -1 70 4 21 5 27 10 15 11 -33 2 21
20 74 24 26 2 55 7 65 12 13 5 17 4 13 -3 -4 -7 11 -5 41 3 91 28 233 64 279
70 26 3 57 10 68 14 34 13 196 43 201 37 3 -3 -13 -8 -35 -12 -23 -4 -41 -11
-41 -16 0 -5 10 -7 23 -4 37 9 132 23 135 20 2 -2 -16 -10 -40 -19 -36 -14
-38 -15 -11 -12 22 4 33 1 37 -10 8 -21 8 -24 -5 -24 -5 0 -7 5 -4 10 4 6 -8
10 -29 10 -20 0 -36 -5 -36 -10 0 -6 11 -8 28 -4 24 7 26 6 13 -9 -7 -10 -28
-17 -46 -17 -17 0 -35 -3 -39 -7 -4 -5 -22 -8 -39 -9 -18 0 -43 -2 -57 -3 -23
-2 -24 -3 -5 -11 19 -8 19 -9 -3 -9 -13 -1 -21 -5 -18 -10 6 -9 56 -2 56 8 0
4 13 8 30 9 16 1 41 7 56 12 15 6 29 8 31 6 3 -3 -37 -18 -89 -34 -75 -23 -88
-29 -66 -34 15 -3 26 -2 24 1 -2 3 33 6 78 6 83 1 151 19 139 38 -3 6 -1 7 5
3 13 -8 54 14 362 189 288 164 277 158 345 161 71 3 136 11 143 19 6 5 -44 9
-153 9 -64 1 -71 3 -80 25 -10 23 -10 23 -130 17 -66 -4 -124 -11 -129 -16 -7
-7 1 -10 20 -11 24 0 -91 -33 -188 -54 -16 -3 -28 -12 -28 -20 0 -9 -6 -12
-17 -8 -11 5 -14 3 -8 -6 6 -10 2 -11 -16 -7 -23 7 -23 7 -5 -8 19 -16 19 -16
-1 -16 -12 0 -23 5 -25 12 -3 7 -10 8 -17 4 -11 -7 -11 -10 0 -18 10 -7 4 -7
-16 -3 -16 4 -26 3 -22 -1 4 -4 -214 -56 -485 -116 -271 -59 -519 -114 -550
-121 -32 -8 -56 -11 -53 -7 2 4 32 13 65 20 53 11 60 15 60 37 0 18 -4 23 -17
20 -10 -3 -42 -11 -70 -17 -48 -11 -53 -15 -53 -39 0 -32 35 -22 -384 -112
-316 -68 -360 -70 -349 -18 4 24 1 30 -18 38 -22 8 -25 5 -34 -33 -6 -22 -15
-41 -20 -40 -6 0 -41 45 -79 100 -245 351 -746 1054 -752 1054 -2 0 -4 -3 -4
-6z"/>
<path d="M3548 2193 c-9 -10 -23 -33 -32 -51 -20 -39 -36 -33 -36 14 0 30 -2
33 -17 25 -45 -23 -163 -25 -148 -1 3 4 -5 6 -16 3 -19 -5 -21 -11 -16 -57 3
-28 19 -90 35 -138 33 -97 35 -93 -43 -103 -69 -9 -268 -7 -325 4 -30 5 -82
15 -115 21 -33 6 -70 15 -82 20 -18 7 -21 6 -16 -5 3 -9 -1 -15 -10 -15 -19 0
-33 20 -15 21 7 0 -9 7 -35 15 -27 8 -56 13 -65 11 -10 -3 -6 -5 9 -6 14 0 33
-9 42 -19 22 -24 21 -31 -3 -25 -11 3 -17 9 -14 14 3 5 -6 9 -19 9 -13 0 -46
2 -73 5 -27 3 -43 3 -36 -1 23 -11 12 -24 -20 -24 -29 1 -87 34 -77 44 2 2 24
8 49 14 41 9 37 10 -36 7 -45 -2 -91 -8 -102 -14 -12 -6 -30 -11 -42 -11 -24
0 -91 -29 -101 -43 -3 -5 -8 -8 -10 -6 -2 1 -14 0 -26 -3 -17 -5 -23 -14 -24
-35 0 -15 -3 -22 -6 -15 -2 6 -9 10 -14 6 -13 -8 -11 17 6 83 8 32 20 60 25
61 16 6 12 22 -5 22 -38 0 11 69 51 71 10 0 13 3 7 6 -9 3 -6 13 9 34 20 27
26 29 90 29 49 0 67 -3 62 -11 -7 -12 17 -9 121 14 l50 11 -50 12 c-66 16
-213 17 -256 2 -38 -13 -61 -32 -52 -42 4 -3 1 -6 -6 -6 -7 0 -36 -20 -63 -45
-28 -25 -53 -43 -58 -40 -4 2 -13 -8 -20 -23 l-13 -27 -10 32 c-8 26 -6 45 11
89 19 53 19 55 1 38 -10 -9 -16 -20 -14 -25 3 -4 -1 -13 -8 -21 -8 -7 -12 -24
-10 -37 3 -21 2 -21 -14 -6 -12 13 -26 15 -60 10 -36 -5 -49 -3 -65 12 -21 18
-21 18 -9 -6 12 -21 17 -23 67 -16 l54 6 0 -30 c0 -40 -16 -48 -44 -22 -32 30
-44 26 -16 -5 18 -18 31 -23 48 -19 14 3 21 2 18 -4 -4 -5 -2 -12 4 -16 5 -3
10 -11 10 -17 0 -6 -10 -3 -22 8 -20 18 -20 17 2 -13 13 -18 30 -33 37 -33 8
0 12 -4 9 -8 -2 -4 45 -57 105 -117 60 -60 109 -112 109 -117 0 -22 42 -27
111 -13 40 9 75 18 77 20 7 7 -19 35 -32 35 -6 0 -5 -4 3 -9 18 -12 4 -19 -63
-29 -45 -7 -56 -6 -52 4 3 7 -2 18 -10 24 -19 17 -19 90 0 90 28 0 27 20 -1
44 -15 13 -25 28 -20 32 4 4 14 -2 23 -14 8 -12 22 -22 30 -22 8 0 14 -6 14
-13 0 -14 40 -54 108 -106 l43 -33 72 14 c57 11 72 18 71 31 -2 21 4 21 25 3
13 -11 26 -12 66 -5 87 17 352 25 545 15 69 -3 158 -7 198 -9 40 -2 77 -8 83
-14 6 -6 29 -7 62 -2 98 16 96 14 90 61 -3 24 -14 58 -25 77 l-19 34 36 -6
c30 -5 36 -3 31 9 -3 9 -6 25 -7 37 -1 20 -2 20 -8 -3 -5 -19 -14 -25 -33 -25
-15 1 -24 -3 -21 -8 8 -14 -39 3 -59 21 -10 8 -18 21 -18 29 0 8 -7 37 -16 64
-16 47 -16 51 6 102 12 28 29 60 38 70 8 9 13 17 10 17 -3 0 -12 -8 -20 -17z"/>
<path d="M395 2129 c-187 -22 -252 -35 -297 -60 -24 -12 -31 -11 -22 3 5 8 2
9 -9 5 -9 -3 -19 -2 -22 3 -3 4 -13 7 -22 6 -14 -2 -17 -16 -19 -76 l-1 -72
66 5 c36 3 86 8 111 11 25 3 7 -3 -40 -13 -148 -31 -140 -27 -140 -67 l0 -36
45 4 c25 2 45 0 45 -4 0 -5 -10 -8 -22 -8 -51 0 -68 -11 -66 -41 2 -21 8 -29
23 -30 17 -1 17 -2 -5 -10 -17 -6 -6 -7 34 -3 33 3 66 8 75 12 9 3 13 2 9 -3
-4 -4 -36 -13 -70 -19 l-63 -11 -3 -153 c-2 -152 -2 -152 20 -152 13 0 43 7
67 16 24 8 46 12 49 9 10 -9 -3 -14 -70 -27 l-67 -12 -1 -259 c-1 -255 0 -258
20 -252 11 3 20 2 20 -3 0 -5 -9 -12 -20 -15 -11 -3 -20 -13 -20 -22 0 -14 3
-15 13 -6 8 6 28 12 45 14 18 2 35 7 39 10 3 4 12 7 19 7 20 0 126 41 121 47
-4 4 -44 -5 -112 -24 -11 -3 -17 -2 -13 2 10 11 109 44 131 45 9 0 25 4 35 9
9 5 26 12 36 16 10 3 17 7 14 10 -2 2 -21 -1 -41 -7 -37 -11 -63 -4 -38 11 11
7 11 10 0 14 -9 3 -10 6 -2 6 6 1 15 -4 18 -9 3 -6 13 -10 21 -10 8 0 12 4 9
10 -3 6 1 7 9 4 10 -4 16 -1 16 9 0 8 9 17 20 20 11 3 19 11 17 19 -2 7 -2 10
0 6 13 -23 93 1 93 27 0 8 7 15 16 15 8 0 12 -4 9 -10 -3 -5 -1 -10 4 -10 6 0
11 7 11 15 0 8 6 15 13 15 6 0 26 12 42 26 17 14 24 23 17 19 -14 -7 -72 15
-72 28 0 5 -5 5 -10 2 -6 -4 -17 -2 -25 5 -9 7 -15 8 -20 0 -10 -16 -25 -12
-19 5 4 8 17 15 29 15 41 0 39 20 -2 21 -33 0 -27 3 35 19 85 21 107 29 101
35 -3 2 -49 -5 -104 -16 -97 -19 -182 -18 -169 2 3 5 0 9 -7 9 -7 0 -9 3 -6 6
4 4 14 1 24 -7 9 -8 14 -9 10 -3 -4 7 18 15 61 24 86 16 115 32 45 24 -45 -6
-53 -4 -53 10 0 9 5 16 11 16 5 0 8 -4 5 -9 -3 -4 6 -6 20 -3 42 8 7 22 -56
22 -54 0 -54 1 -28 14 15 8 35 16 45 19 11 3 6 5 -11 6 -29 1 -29 2 -10 17 18
14 15 15 -36 10 -30 -3 -74 -9 -98 -14 -31 -7 -42 -6 -39 2 2 6 34 15 70 20
37 4 67 13 67 18 0 5 -15 7 -32 4 -18 -3 -49 -8 -69 -10 -20 -3 -44 -8 -54
-12 -12 -5 -16 -3 -13 7 2 7 19 14 38 14 18 0 35 6 38 13 2 7 10 12 18 12 9 0
12 -4 9 -10 -3 -5 1 -10 9 -10 9 0 16 6 16 13 0 14 12 17 68 19 17 0 32 5 32
9 0 5 3 8 8 8 19 -3 32 2 30 12 -2 7 13 16 32 22 l35 10 -30 9 c-29 8 -48 7
-125 -6 -32 -6 -33 -6 -10 5 24 11 106 30 142 32 9 1 14 5 11 10 -2 4 -32 5
-66 2 -43 -4 -56 -2 -42 4 11 5 14 10 7 10 -7 1 -11 5 -7 11 3 5 12 7 20 3 11
-4 13 -1 9 11 -5 12 -2 15 12 9 12 -4 15 -3 10 6 -9 14 -67 5 -78 -13 -6 -8
-8 -8 -8 1 0 9 -7 10 -22 4 -13 -4 -48 -11 -78 -14 -71 -8 -35 2 135 38 179
37 193 42 120 42 -73 0 -114 11 -94 24 8 5 32 7 54 4 28 -3 34 -2 20 4 -19 8
-19 9 5 14 14 3 -9 4 -50 2 -43 -2 -66 0 -55 5 19 7 18 8 -5 12 -23 5 -23 5
-2 7 12 0 22 5 22 10 0 5 10 13 23 17 20 7 19 9 -13 15 l-35 6 35 2 c27 1 32
4 20 11 -11 8 -7 9 14 4 21 -5 27 -4 22 5 -4 6 -1 11 6 12 25 1 62 10 67 15 3
3 -37 3 -89 0 -59 -3 -84 -2 -65 3 17 5 43 9 59 10 16 0 37 7 45 15 9 8 32 19
51 24 l35 9 -30 7 c-16 4 -39 12 -50 17 -12 6 -13 8 -3 5 10 -3 20 -1 23 4 3
5 -12 10 -32 12 l-38 3 51 19 51 20 -25 23 c-24 22 -24 23 -4 23 29 0 56 48
29 51 -52 5 -80 5 -132 -2z"/>
<path d="M1780 1910 c23 -33 24 -33 132 -10 43 9 48 6 48 -31 0 -43 -68 -54
-107 -17 -13 12 -23 17 -23 11 0 -5 11 -19 24 -32 19 -18 30 -21 63 -15 39 6
41 5 45 -25 6 -43 -8 -48 -43 -15 -16 15 -29 23 -29 18 0 -20 47 -54 73 -54
15 0 27 -4 27 -10 0 -5 16 -28 36 -50 20 -22 32 -40 26 -40 -6 0 -29 21 -51
48 -23 26 -41 40 -41 32 0 -9 20 -35 44 -59 l44 -44 81 19 80 19 -60 65 c-33
36 -89 97 -125 136 l-65 71 -52 -14 c-72 -18 -105 -17 -119 7 -7 11 -17 20
-21 20 -5 0 1 -14 13 -30z"/>
<path d="M6389 1898 c0 -2 -2 -14 -3 -27 -2 -13 -16 -35 -32 -48 -16 -13 -35
-28 -41 -34 -7 -5 -13 -7 -13 -3 0 4 -8 -2 -18 -13 -10 -12 -29 -23 -42 -25
-14 -2 -24 -9 -22 -16 1 -8 -2 -11 -7 -8 -5 4 -13 1 -16 -5 -4 -6 -17 -14 -29
-19 -17 -7 -13 -9 21 -9 23 -1 77 -8 120 -16 43 -8 82 -15 86 -15 4 0 7 54 6
120 -1 99 -4 135 -10 118z"/>
<path d="M4290 1780 c0 -5 10 -11 23 -13 12 -3 -7 -3 -43 -1 -36 2 -58 1 -49
-3 13 -6 16 -22 13 -76 -2 -62 0 -69 19 -76 32 -12 408 -41 421 -33 6 4 11 32
11 62 l0 55 54 0 c57 -1 50 5 -33 26 -35 9 -44 14 -31 19 10 3 -36 14 -104 25
-66 10 -124 15 -128 12 -3 -4 6 -7 20 -7 15 0 27 -4 27 -9 0 -10 -59 -4 -142
14 -32 7 -58 9 -58 5z"/>
<path d="M5985 1680 c-49 -4 -103 -13 -120 -18 -43 -16 -286 -30 -383 -23 -69
5 -82 4 -82 -9 0 -12 -14 -15 -66 -16 -52 0 -69 -4 -80 -18 -11 -16 -22 -18
-87 -12 -62 6 -76 5 -87 -9 -21 -25 12 -46 59 -39 24 3 76 -5 151 -25 129 -35
235 -40 310 -17 25 8 39 15 33 15 -27 2 -11 21 17 21 25 0 30 4 30 25 0 33 -1
33 -165 56 -44 6 -82 13 -84 15 -8 7 43 3 116 -9 40 -7 76 -10 80 -6 10 8 255
39 313 39 23 0 59 4 79 10 20 5 54 13 76 19 34 8 36 9 10 8 -16 0 -70 -3 -120
-7z"/>
<path d="M260 864 c-85 -18 -131 -23 -125 -13 9 14 -15 21 -30 9 -8 -6 -18
-10 -22 -7 -14 8 -55 -12 -47 -24 4 -8 0 -9 -15 -4 -21 6 -21 6 -21 -183 0
-166 2 -191 16 -196 9 -4 23 -1 31 6 8 7 43 13 78 14 35 2 76 9 92 17 15 8 34
12 41 10 6 -3 12 0 12 5 0 13 -49 22 -56 10 -3 -5 -11 -8 -17 -7 -7 1 -23 -2
-37 -8 -14 -6 -53 -14 -88 -18 -54 -6 -61 -5 -56 8 3 9 12 13 20 10 8 -3 22
-2 31 2 10 5 23 9 28 10 6 1 12 3 15 4 3 2 32 9 65 17 86 20 92 21 114 33 11
6 34 11 52 11 40 0 109 20 109 32 0 5 -15 7 -32 4 -18 -3 -49 -8 -68 -11 -35
-5 -35 -5 -5 5 16 5 36 17 42 27 12 16 13 15 13 -3 1 -17 1 -17 11 -2 5 9 16
15 23 12 8 -3 19 4 26 16 6 11 14 18 19 16 4 -3 14 4 21 15 8 10 22 19 30 19
9 0 25 7 36 15 18 14 16 15 -22 9 -39 -6 -66 7 -49 24 3 3 10 0 14 -7 7 -11
11 -9 21 8 6 12 21 26 33 31 l22 9 -23 0 c-12 1 -25 -5 -28 -12 -2 -7 -20 -14
-40 -14 -30 -1 -33 1 -22 15 12 14 10 14 -12 2 -14 -7 -57 -15 -97 -17 -63 -4
-73 -2 -73 12 0 9 6 15 13 14 30 -4 47 2 47 17 0 8 5 12 10 9 13 -8 80 16 80
28 0 5 -7 7 -15 3 -18 -7 -45 3 -45 16 0 6 7 8 15 4 8 -3 15 -2 15 3 0 13 -77
10 -150 -5z"/>
<path d="M2650 759 c0 -28 3 -39 9 -31 7 11 9 11 14 -2 4 -10 16 -14 37 -11
16 2 30 -1 30 -6 0 -5 9 -9 21 -9 11 0 17 -4 14 -10 -3 -6 1 -7 9 -4 9 3 16 2
16 -2 0 -5 12 -10 26 -11 15 0 29 -5 33 -11 3 -5 22 -12 42 -16 20 -3 47 -15
59 -26 13 -11 32 -20 42 -20 11 0 16 -5 13 -11 -4 -6 -1 -10 6 -8 27 3 39 -1
39 -15 0 -9 16 -15 47 -19 26 -3 49 -10 51 -16 2 -6 13 -11 24 -11 10 0 26 -7
34 -15 9 -8 27 -15 40 -15 14 0 44 -11 67 -23 23 -13 45 -25 49 -26 4 -1 14
-4 23 -7 8 -3 20 -4 27 -2 7 3 21 -4 32 -14 11 -10 25 -18 30 -18 6 0 20 -14
31 -30 11 -16 26 -30 33 -30 18 0 15 -18 -5 -24 -10 -2 -1 -2 19 1 40 5 108
-12 108 -29 0 -6 6 -6 15 2 12 10 15 10 15 -4 0 -10 9 -16 24 -16 14 0 28 -4
31 -10 3 -5 2 -10 -4 -10 -11 0 -41 -56 -41 -76 0 -15 34 -28 75 -29 18 0 29
-5 28 -12 -2 -7 16 -18 42 -24 25 -6 42 -15 39 -20 -3 -5 18 -9 45 -9 28 0 51
-4 51 -10 0 -16 49 -12 80 6 19 12 38 15 64 10 34 -7 40 -14 39 -54 -1 -6 5
-12 13 -12 8 0 14 4 14 9 0 5 12 8 28 6 15 -2 35 -4 45 -4 9 -1 17 -5 17 -10
0 -5 -8 -12 -17 -14 -10 -3 54 -5 141 -6 88 0 157 1 155 4 -6 6 -331 141 -385
160 -22 8 -123 49 -225 91 -101 41 -303 124 -449 183 -146 60 -371 152 -500
206 -129 54 -257 106 -283 116 -27 10 -55 23 -63 30 -12 10 -14 4 -14 -32z"/>
<path d="M18 203 c-16 -4 -18 -18 -18 -104 l0 -99 106 0 c77 0 109 4 120 14 7
8 23 12 34 9 11 -3 20 -1 20 5 0 5 8 9 18 8 11 -1 16 5 14 17 -3 19 6 21 28 8
18 -12 36 -1 19 11 -10 6 0 8 29 5 24 -3 40 -1 36 4 -3 5 6 9 20 9 14 0 26 5
26 10 0 6 9 10 19 10 11 0 22 4 25 9 3 4 26 11 52 14 25 2 51 10 57 16 8 8 0
10 -33 6 -103 -13 -110 -12 -98 2 6 8 17 12 24 9 13 -5 30 11 21 20 -2 3 -34
-1 -71 -7 -63 -12 -65 -13 -61 -38 l5 -26 -12 23 c-9 17 -17 22 -32 17 -12 -4
-34 -8 -51 -11 -16 -2 -37 -7 -45 -10 -8 -3 -42 -10 -75 -14 -33 -4 -75 -12
-92 -18 -18 -6 -35 -7 -37 -3 -3 4 7 8 21 9 33 3 40 9 25 24 -17 17 -15 23 13
36 14 6 25 18 25 27 0 12 -12 15 -57 14 -32 -1 -66 -3 -75 -6z"/>
<path d="M5375 156 c-41 -49 -45 -57 -33 -75 10 -17 9 -25 -10 -51 l-23 -30
213 0 213 1 -35 30 c-100 88 -239 179 -271 179 -4 0 -28 -24 -54 -54z"/>
</g>
</svg>
